<mxfile host="app.diagrams.net" modified="2020-09-27T09:53:30.762Z" agent="5.0 (Windows NT 10.0; WOW64) AppleWebKit/537.36 (KHTML, like Gecko) Chrome/78.0.3904.108 Safari/537.36" etag="HU8m5Wgab-VrQGBJrWmI" version="13.7.5" type="github">
  <diagram id="GoElEKIbQXI6rU7nK17R" name="第 1 页">
    <mxGraphModel dx="2861" dy="977" grid="1" gridSize="10" guides="1" tooltips="1" connect="1" arrows="1" fold="1" page="1" pageScale="1" pageWidth="827" pageHeight="1169" math="0" shadow="0">
      <root>
        <mxCell id="0" />
        <mxCell id="1" parent="0" />
        <mxCell id="GLcC5yd5IhDs9JHTGfu3-5" value="" style="rounded=1;whiteSpace=wrap;html=1;" vertex="1" parent="1">
          <mxGeometry x="-370" y="870" width="850" height="160" as="geometry" />
        </mxCell>
        <mxCell id="GLcC5yd5IhDs9JHTGfu3-1" value="商品能力" style="rounded=1;whiteSpace=wrap;html=1;fillColor=#D4E1F5;" vertex="1" parent="1">
          <mxGeometry x="-330" y="920" width="120" height="60" as="geometry" />
        </mxCell>
        <mxCell id="GLcC5yd5IhDs9JHTGfu3-2" value="订单能力" style="rounded=1;whiteSpace=wrap;html=1;fillColor=#D4E1F5;" vertex="1" parent="1">
          <mxGeometry x="-120" y="920" width="120" height="60" as="geometry" />
        </mxCell>
        <mxCell id="GLcC5yd5IhDs9JHTGfu3-3" value="营销能力" style="rounded=1;whiteSpace=wrap;html=1;fillColor=#D4E1F5;" vertex="1" parent="1">
          <mxGeometry x="90" y="920" width="120" height="60" as="geometry" />
        </mxCell>
        <mxCell id="GLcC5yd5IhDs9JHTGfu3-4" value="购买能力" style="rounded=1;whiteSpace=wrap;html=1;fillColor=#D4E1F5;" vertex="1" parent="1">
          <mxGeometry x="260" y="920" width="120" height="60" as="geometry" />
        </mxCell>
        <mxCell id="GLcC5yd5IhDs9JHTGfu3-6" value="能力中心" style="text;html=1;resizable=0;autosize=1;align=center;verticalAlign=middle;points=[];fillColor=none;strokeColor=none;rounded=0;fontSize=28;" vertex="1" parent="1">
          <mxGeometry x="-45" y="870" width="130" height="40" as="geometry" />
        </mxCell>
        <mxCell id="GLcC5yd5IhDs9JHTGfu3-7" value="" style="rounded=1;whiteSpace=wrap;html=1;fontSize=28;fillColor=#D5E8D4;" vertex="1" parent="1">
          <mxGeometry x="-640" y="160" width="360" height="630" as="geometry" />
        </mxCell>
        <mxCell id="GLcC5yd5IhDs9JHTGfu3-17" style="edgeStyle=orthogonalEdgeStyle;rounded=0;orthogonalLoop=1;jettySize=auto;html=1;exitX=0.5;exitY=1;exitDx=0;exitDy=0;exitPerimeter=0;entryX=0.5;entryY=0;entryDx=0;entryDy=0;fontSize=12;" edge="1" parent="1" source="GLcC5yd5IhDs9JHTGfu3-8" target="GLcC5yd5IhDs9JHTGfu3-10">
          <mxGeometry relative="1" as="geometry" />
        </mxCell>
        <mxCell id="GLcC5yd5IhDs9JHTGfu3-8" value="开始" style="strokeWidth=2;html=1;shape=mxgraph.flowchart.terminator;whiteSpace=wrap;fillColor=#D5E8D4;fontSize=12;" vertex="1" parent="1">
          <mxGeometry x="-523" y="210" width="110" height="40" as="geometry" />
        </mxCell>
        <mxCell id="GLcC5yd5IhDs9JHTGfu3-9" value="&lt;font style=&quot;font-size: 23px&quot;&gt;下单流程&lt;/font&gt;" style="text;html=1;align=center;verticalAlign=middle;resizable=0;points=[];autosize=1;fontSize=12;" vertex="1" parent="1">
          <mxGeometry x="-523" y="130" width="110" height="20" as="geometry" />
        </mxCell>
        <mxCell id="GLcC5yd5IhDs9JHTGfu3-19" style="edgeStyle=orthogonalEdgeStyle;rounded=0;orthogonalLoop=1;jettySize=auto;html=1;exitX=0.5;exitY=1;exitDx=0;exitDy=0;fontSize=12;" edge="1" parent="1" source="GLcC5yd5IhDs9JHTGfu3-10" target="GLcC5yd5IhDs9JHTGfu3-11">
          <mxGeometry relative="1" as="geometry" />
        </mxCell>
        <mxCell id="GLcC5yd5IhDs9JHTGfu3-10" value="生成订单" style="rounded=1;whiteSpace=wrap;html=1;absoluteArcSize=1;arcSize=14;strokeWidth=2;fillColor=#D5E8D4;fontSize=12;" vertex="1" parent="1">
          <mxGeometry x="-533" y="290" width="130" height="60" as="geometry" />
        </mxCell>
        <mxCell id="GLcC5yd5IhDs9JHTGfu3-20" style="edgeStyle=orthogonalEdgeStyle;rounded=0;orthogonalLoop=1;jettySize=auto;html=1;entryX=0.5;entryY=0;entryDx=0;entryDy=0;fontSize=12;" edge="1" parent="1" source="GLcC5yd5IhDs9JHTGfu3-11" target="GLcC5yd5IhDs9JHTGfu3-14">
          <mxGeometry relative="1" as="geometry" />
        </mxCell>
        <mxCell id="GLcC5yd5IhDs9JHTGfu3-11" value="扣" style="rounded=1;whiteSpace=wrap;html=1;absoluteArcSize=1;arcSize=14;strokeWidth=2;fillColor=#D5E8D4;fontSize=12;" vertex="1" parent="1">
          <mxGeometry x="-533" y="390" width="130" height="60" as="geometry" />
        </mxCell>
        <mxCell id="GLcC5yd5IhDs9JHTGfu3-12" value="" style="rounded=1;whiteSpace=wrap;html=1;fontSize=28;fillColor=#D5E8D4;" vertex="1" parent="1">
          <mxGeometry x="240" y="170" width="360" height="630" as="geometry" />
        </mxCell>
        <mxCell id="GLcC5yd5IhDs9JHTGfu3-13" value="&lt;font style=&quot;font-size: 23px&quot;&gt;生成订单&lt;/font&gt;" style="text;html=1;align=center;verticalAlign=middle;resizable=0;points=[];autosize=1;fontSize=12;" vertex="1" parent="1">
          <mxGeometry x="358" y="140" width="110" height="20" as="geometry" />
        </mxCell>
        <mxCell id="GLcC5yd5IhDs9JHTGfu3-21" style="edgeStyle=orthogonalEdgeStyle;rounded=0;orthogonalLoop=1;jettySize=auto;html=1;fontSize=12;" edge="1" parent="1" source="GLcC5yd5IhDs9JHTGfu3-14" target="GLcC5yd5IhDs9JHTGfu3-15">
          <mxGeometry relative="1" as="geometry" />
        </mxCell>
        <mxCell id="GLcC5yd5IhDs9JHTGfu3-14" value="扣智米" style="rounded=1;whiteSpace=wrap;html=1;absoluteArcSize=1;arcSize=14;strokeWidth=2;fillColor=#D5E8D4;fontSize=12;" vertex="1" parent="1">
          <mxGeometry x="-533" y="490" width="130" height="60" as="geometry" />
        </mxCell>
        <mxCell id="GLcC5yd5IhDs9JHTGfu3-22" style="edgeStyle=orthogonalEdgeStyle;rounded=0;orthogonalLoop=1;jettySize=auto;html=1;entryX=0.5;entryY=0;entryDx=0;entryDy=0;entryPerimeter=0;fontSize=12;" edge="1" parent="1" source="GLcC5yd5IhDs9JHTGfu3-15" target="GLcC5yd5IhDs9JHTGfu3-16">
          <mxGeometry relative="1" as="geometry" />
        </mxCell>
        <mxCell id="GLcC5yd5IhDs9JHTGfu3-15" value="发送下单成功消息" style="rounded=1;whiteSpace=wrap;html=1;absoluteArcSize=1;arcSize=14;strokeWidth=2;fillColor=#D5E8D4;fontSize=12;" vertex="1" parent="1">
          <mxGeometry x="-533" y="585" width="130" height="60" as="geometry" />
        </mxCell>
        <mxCell id="GLcC5yd5IhDs9JHTGfu3-16" value="结束" style="strokeWidth=2;html=1;shape=mxgraph.flowchart.terminator;whiteSpace=wrap;fillColor=#D5E8D4;fontSize=12;" vertex="1" parent="1">
          <mxGeometry x="-523" y="690" width="110" height="40" as="geometry" />
        </mxCell>
      </root>
    </mxGraphModel>
  </diagram>
</mxfile>
